<svg width="1920" height="1080" viewBox="0 0 1920 1080" xmlns="http://www.w3.org/2000/svg"><rect width="1920" height="1080" fill="#246dff"/><path d="M 0,1080 C 0,1080 0,135 0,135 C 97.09544264981892,152.77176240450447 194.19088529963784,170.54352480900894 260,163 C 325.80911470036216,155.45647519099106 360.3319014512675,122.59766316846864 424,114 C 487.6680985487325,105.40233683153136 580.4815088952919,121.06582251711649 653,143 C 725.5184911047081,164.9341774828835 777.7420629675647,193.13904676306535 829,181 C 880.2579370324353,168.86095323693465 930.5502392344499,116.377990430622 991,119 C 1051.44976076555,121.622009569378 1122.0569800946362,179.34899151444657 1218,185 C 1313.9430199053638,190.65100848555343 1435.2218403870045,144.22604351159163 1505,126 C 1574.7781596129955,107.77395648840837 1593.0556583573448,117.74683443918688 1683,118 C 1772.9443416426552,118.25316556081312 1934.5555261836157,108.7866187316609 1986,110 C 2037.4444738163843,111.2133812683391 1978.7222369081921,123.10669063416955 1920,135 C 1920,135 1920,1080 1920,1080 Z" fill="#d6deff" opacity="0.075"/><path d="M 0,1080 C 0,1080 0,270 0,270 C 63.46534404821699,256.42341854133076 126.93068809643398,242.84683708266147 210,244 C 293.069311903566,245.15316291733853 395.7425916624811,261.0360702106849 471,280 C 546.2574083375189,298.9639297893151 594.0989452536415,321.0088820745989 635,304 C 675.9010547463585,286.9911179254011 709.8616273229533,230.9284014909197 790,221 C 870.1383726770467,211.0715985090803 996.4545454545457,247.2775119617225 1062,275 C 1127.5454545454543,302.7224880382775 1132.3201908588646,321.9615506621904 1205,307 C 1277.6798091411354,292.0384493378096 1418.264691109995,242.876285389516 1526,230 C 1633.735308890005,217.123714610484 1708.6210447011554,240.5333077797457 1763,263 C 1817.3789552988446,285.4666922202543 1851.2511300853844,306.9904834915012 1874,308 C 1896.7488699146156,309.0095165084988 1908.3744349573078,289.5047582542494 1920,270 C 1920,270 1920,1080 1920,1080 Z" fill="#d6deff" opacity="0.15"/><path d="M 0,1080 C 0,1080 0,405 0,405 C 93.85401411615427,404.29638637024505 187.70802823230855,403.5927727404901 253,398 C 318.29197176769145,392.4072272595099 355.02190118692005,381.9252954082846 398,387 C 440.97809881307995,392.0747045917154 490.2043670200112,412.7060456263713 568,415 C 645.7956329799888,417.2939543736287 752.1606307330354,401.25052208623015 819,387 C 885.8393692669646,372.74947791376985 913.1531100478469,360.2918660287081 1004,371 C 1094.846889952153,381.7081339712919 1249.226929075577,415.5820137989373 1350,419 C 1450.773070924423,422.4179862010627 1497.9391736498453,395.38007877554264 1527,401 C 1556.0608263501547,406.61992122445736 1567.0163763250416,444.8976710988923 1663,437 C 1758.9836236749584,429.1023289011077 1939.9953210499884,375.0292368288879 1997,362 C 2054.0046789500116,348.9707631711121 1987.0023394750058,376.98538158555607 1920,405 C 1920,405 1920,1080 1920,1080 Z" fill="#d6deff" opacity="0.22499999999999998"/><path d="M 0,1080 C 0,1080 0,540 0,540 C 101.61680192444948,560.4325120938962 203.23360384889895,580.8650241877924 265,580 C 326.76639615110105,579.1349758122076 348.6823865288536,556.9724153427264 410,555 C 471.3176134711464,553.0275846572736 572.0368500356868,571.2453144413016 648,567 C 723.9631499643132,562.7546855586984 775.170213328399,536.0463268920669 860,515 C 944.829786671601,493.95367310793307 1063.2822966507176,478.5693779904306 1132,493 C 1200.7177033492824,507.4306220095694 1219.7006000687304,551.6761611462107 1291,573 C 1362.2993999312696,594.3238388537893 1485.915303074361,592.725977424727 1558,589 C 1630.084696925639,585.274022575273 1650.638187633826,579.4199291548812 1726,567 C 1801.361812366174,554.5800708451188 1931.5319463903354,535.5943059557483 1973,530 C 2014.4680536096646,524.4056940442517 1967.2340268048324,532.2028470221259 1920,540 C 1920,540 1920,1080 1920,1080 Z" fill="#d6deff" opacity="0.3"/><path d="M 0,1080 C 0,1080 0,675 0,675 C 77.62888260329376,672.401134050596 155.25776520658752,669.8022681011922 209,676 C 262.7422347934125,682.1977318988078 292.59782177694365,697.1920616458272 380,709 C 467.40217822305635,720.8079383541728 612.3509476856381,729.4294853154988 679,716 C 745.6490523143619,702.5705146845012 733.9983874805042,667.089997092178 785,657 C 836.0016125194958,646.910002907822 949.6555023923445,662.2105263157896 1061,675 C 1172.3444976076555,687.7894736842104 1281.3796029501175,698.0678976446641 1336,684 C 1390.6203970498825,669.9321023553359 1390.826085807185,631.517883105554 1426,630 C 1461.173914192815,628.482116894446 1531.316053821142,663.86056993312 1643,682 C 1754.683946178858,700.13943006688 1907.9096989082452,701.0398371619657 1961,697 C 2014.0903010917548,692.9601628380343 1967.0451505458773,683.9800814190171 1920,675 C 1920,675 1920,1080 1920,1080 Z" fill="#d6deff" opacity="0.375"/><path d="M 0,1080 C 0,1080 0,810 0,810 C 52.187316608950795,843.4178804620793 104.37463321790159,876.8357609241586 186,857 C 267.6253667820984,837.1642390758414 378.68878373734435,764.0748367654445 451,761 C 523.3112162626556,757.9251632345555 556.870231832721,824.8648920140633 643,831 C 729.129768167279,837.1351079859367 867.830288931772,782.4655951783025 927,771 C 986.169711068228,759.5344048216975 965.8086124401914,791.2727272727273 992,806 C 1018.1913875598086,820.7272727272727 1090.9352613074625,818.4434957307886 1202,828 C 1313.0647386925375,837.5565042692114 1462.4503423299584,858.9532898041185 1536,843 C 1609.5496576700416,827.0467101958815 1607.2633693727037,773.7433450527374 1658,768 C 1708.7366306272963,762.2566549472626 1812.4961801792274,804.0733299849321 1865,819 C 1917.5038198207726,833.9266700150679 1918.7519099103863,821.9633350075339 1920,810 C 1920,810 1920,1080 1920,1080 Z" fill="#d6deff" opacity="0.44999999999999996"/><path d="M 0,1080 C 0,1080 0,945 0,945 C 87.34540960638665,938.4891881889555 174.6908192127733,931.9783763779111 234,938 C 293.3091807872267,944.0216236220889 324.5821327552935,962.5756826773112 396,953 C 467.4178672447065,943.4243173226888 578.9806497660525,905.7188929128445 641,915 C 703.0193502339475,924.2811070871555 715.4952681804965,980.5487456713106 804,977 C 892.5047318195035,973.4512543286894 1057.0382775119615,910.0861244019139 1125,909 C 1192.9617224880385,907.9138755980861 1164.3516217716565,969.106756721034 1223,993 C 1281.6483782283435,1016.893243278966 1427.5552354014117,1003.4868487139497 1519,988 C 1610.4447645985883,972.5131512860503 1647.4274366226969,954.9458484231673 1700,953 C 1752.5725633773031,951.0541515768327 1820.7350181078011,964.7297575933808 1860,966 C 1899.2649818921989,967.2702424066192 1909.6324909460996,956.1351212033096 1920,945 C 1920,945 1920,1080 1920,1080 Z" fill="#d6deff" opacity="0.525"/></svg>